<svg xmlns="http://www.w3.org/2000/svg" xmlns:xlink="http://www.w3.org/1999/xlink" width="40" zoomAndPan="magnify" viewBox="0 0 30 30.000001" height="40" preserveAspectRatio="xMidYMid meet" version="1.0"><defs><clipPath id="0cf648f110"><path d="M 12 23 L 13 23 L 13 23.667969 L 12 23.667969 Z M 12 23 " clip-rule="nonzero"/></clipPath><clipPath id="783f2dbc6a"><path d="M 13 5.523438 L 14 5.523438 L 14 6 L 13 6 Z M 13 5.523438 " clip-rule="nonzero"/></clipPath><clipPath id="51f7effaa0"><path d="M 13 23 L 14 23 L 14 23.667969 L 13 23.667969 Z M 13 23 " clip-rule="nonzero"/></clipPath><clipPath id="608e29e237"><path d="M 12 5.523438 L 13 5.523438 L 13 7 L 12 7 Z M 12 5.523438 " clip-rule="nonzero"/></clipPath><clipPath id="33d7e98f74"><path d="M 6.007812 14 L 7 14 L 7 15 L 6.007812 15 Z M 6.007812 14 " clip-rule="nonzero"/></clipPath><clipPath id="715abada80"><path d="M 13 23 L 15 23 L 15 23.667969 L 13 23.667969 Z M 13 23 " clip-rule="nonzero"/></clipPath><clipPath id="08ba0c6a9e"><path d="M 6.007812 18 L 8 18 L 8 19 L 6.007812 19 Z M 6.007812 18 " clip-rule="nonzero"/></clipPath><clipPath id="c740fca27b"><path d="M 15 5.523438 L 16 5.523438 L 16 6 L 15 6 Z M 15 5.523438 " clip-rule="nonzero"/></clipPath><clipPath id="129aa35479"><path d="M 17 22 L 18 22 L 18 23.667969 L 17 23.667969 Z M 17 22 " clip-rule="nonzero"/></clipPath><clipPath id="df7ac46798"><path d="M 15 23 L 16 23 L 16 23.667969 L 15 23.667969 Z M 15 23 " clip-rule="nonzero"/></clipPath><clipPath id="077e3d665a"><path d="M 17 5.523438 L 18 5.523438 L 18 7 L 17 7 Z M 17 5.523438 " clip-rule="nonzero"/></clipPath><clipPath id="551de08867"><path d="M 14 5.523438 L 15 5.523438 L 15 6 L 14 6 Z M 14 5.523438 " clip-rule="nonzero"/></clipPath><clipPath id="c402e8dace"><path d="M 14 23 L 15 23 L 15 23.667969 L 14 23.667969 Z M 14 23 " clip-rule="nonzero"/></clipPath><clipPath id="50c100ac43"><path d="M 15 5.523438 L 17 5.523438 L 17 6 L 15 6 Z M 15 5.523438 " clip-rule="nonzero"/></clipPath><clipPath id="ceb9204796"><path d="M 14 5.523438 L 15 5.523438 L 15 6 L 14 6 Z M 14 5.523438 " clip-rule="nonzero"/></clipPath><clipPath id="29f2a33f86"><path d="M 17 5.523438 L 18 5.523438 L 18 6 L 17 6 Z M 17 5.523438 " clip-rule="nonzero"/></clipPath><clipPath id="6e042f7b08"><path d="M 16 5.523438 L 17 5.523438 L 17 6 L 16 6 Z M 16 5.523438 " clip-rule="nonzero"/></clipPath><clipPath id="cac3d08844"><path d="M 16 23 L 18 23 L 18 23.667969 L 16 23.667969 Z M 16 23 " clip-rule="nonzero"/></clipPath><clipPath id="fe73d3b0a0"><path d="M 16 23 L 17 23 L 17 23.667969 L 16 23.667969 Z M 16 23 " clip-rule="nonzero"/></clipPath><clipPath id="7409b4ffda"><path d="M 15 23 L 16 23 L 16 23.667969 L 15 23.667969 Z M 15 23 " clip-rule="nonzero"/></clipPath><clipPath id="4a31e225a7"><path d="M 6.007812 17 L 7 17 L 7 18 L 6.007812 18 Z M 6.007812 17 " clip-rule="nonzero"/></clipPath><clipPath id="6eabb336f8"><path d="M 6.007812 17 L 7 17 L 7 19 L 6.007812 19 Z M 6.007812 17 " clip-rule="nonzero"/></clipPath><clipPath id="33e7e4d28f"><path d="M 6.007812 10 L 7 10 L 7 12 L 6.007812 12 Z M 6.007812 10 " clip-rule="nonzero"/></clipPath><clipPath id="6e19933fea"><path d="M 6.007812 14 L 7 14 L 7 16 L 6.007812 16 Z M 6.007812 14 " clip-rule="nonzero"/></clipPath><clipPath id="1f99a827e3"><path d="M 6.007812 13 L 7 13 L 7 14 L 6.007812 14 Z M 6.007812 13 " clip-rule="nonzero"/></clipPath><clipPath id="1f2c6ef2e1"><path d="M 6.007812 11 L 7 11 L 7 12 L 6.007812 12 Z M 6.007812 11 " clip-rule="nonzero"/></clipPath><clipPath id="13feb9938b"><path d="M 6.007812 13 L 7 13 L 7 14 L 6.007812 14 Z M 6.007812 13 " clip-rule="nonzero"/></clipPath><clipPath id="65ffe7b034"><path d="M 6.007812 11 L 7 11 L 7 13 L 6.007812 13 Z M 6.007812 11 " clip-rule="nonzero"/></clipPath><clipPath id="afd7a61d93"><path d="M 6.007812 10 L 8 10 L 8 11 L 6.007812 11 Z M 6.007812 10 " clip-rule="nonzero"/></clipPath><clipPath id="eb2a4fae13"><path d="M 12 22 L 13 22 L 13 23.667969 L 12 23.667969 Z M 12 22 " clip-rule="nonzero"/></clipPath><clipPath id="5e2dd68833"><path d="M 6.007812 16 L 7 16 L 7 17 L 6.007812 17 Z M 6.007812 16 " clip-rule="nonzero"/></clipPath><clipPath id="87d5f0a929"><path d="M 12 5.523438 L 14 5.523438 L 14 6 L 12 6 Z M 12 5.523438 " clip-rule="nonzero"/></clipPath><clipPath id="e8f39072c3"><path d="M 6.007812 16 L 7 16 L 7 17 L 6.007812 17 Z M 6.007812 16 " clip-rule="nonzero"/></clipPath><clipPath id="f2b38424ac"><path d="M 6.007812 12 L 7 12 L 7 13 L 6.007812 13 Z M 6.007812 12 " clip-rule="nonzero"/></clipPath><clipPath id="13a091424f"><path d="M 6.007812 15 L 7 15 L 7 16 L 6.007812 16 Z M 6.007812 15 " clip-rule="nonzero"/></clipPath><clipPath id="8ee9c2c991"><path d="M 6.703125 6.21875 L 23.296875 6.21875 L 23.296875 22.8125 L 6.703125 22.8125 Z M 6.703125 6.21875 " clip-rule="nonzero"/></clipPath><clipPath id="6165b8383c"><path d="M 15 6.21875 C 10.417969 6.21875 6.703125 9.933594 6.703125 14.515625 C 6.703125 19.097656 10.417969 22.8125 15 22.8125 C 19.582031 22.8125 23.296875 19.097656 23.296875 14.515625 C 23.296875 9.933594 19.582031 6.21875 15 6.21875 Z M 15 6.21875 " clip-rule="nonzero"/></clipPath><linearGradient x1="-0.000000712588" gradientTransform="matrix(0.0648264, 0, 0, 0.0648264, 6.702217, 6.218349)" y1="-0.000000712588" x2="255.999984" gradientUnits="userSpaceOnUse" y2="255.999984" id="1698390e82"><stop stop-opacity="1" stop-color="rgb(31.799316%, 43.899536%, 100%)" offset="0"/><stop stop-opacity="1" stop-color="rgb(32.060242%, 43.743896%, 99.987793%)" offset="0.00390625"/><stop stop-opacity="1" stop-color="rgb(32.322693%, 43.589783%, 99.975586%)" offset="0.0078125"/><stop stop-opacity="1" stop-color="rgb(32.583618%, 43.434143%, 99.963379%)" offset="0.0117187"/><stop stop-opacity="1" stop-color="rgb(32.846069%, 43.280029%, 99.951172%)" offset="0.015625"/><stop stop-opacity="1" stop-color="rgb(33.106995%, 43.125916%, 99.938965%)" offset="0.0195312"/><stop stop-opacity="1" stop-color="rgb(33.369446%, 42.971802%, 99.926758%)" offset="0.0234375"/><stop stop-opacity="1" stop-color="rgb(33.630371%, 42.816162%, 99.914551%)" offset="0.0273437"/><stop stop-opacity="1" stop-color="rgb(33.892822%, 42.662048%, 99.902344%)" offset="0.03125"/><stop stop-opacity="1" stop-color="rgb(34.153748%, 42.506409%, 99.890137%)" offset="0.0351562"/><stop stop-opacity="1" stop-color="rgb(34.416199%, 42.352295%, 99.87793%)" offset="0.0390625"/><stop stop-opacity="1" stop-color="rgb(34.677124%, 42.196655%, 99.865723%)" offset="0.0429687"/><stop stop-opacity="1" stop-color="rgb(34.939575%, 42.042542%, 99.853516%)" offset="0.046875"/><stop stop-opacity="1" stop-color="rgb(35.2005%, 41.888428%, 99.841309%)" offset="0.0507812"/><stop stop-opacity="1" stop-color="rgb(35.462952%, 41.734314%, 99.829102%)" offset="0.0546875"/><stop stop-opacity="1" stop-color="rgb(35.723877%, 41.578674%, 99.816895%)" offset="0.0585937"/><stop stop-opacity="1" stop-color="rgb(35.986328%, 41.424561%, 99.806213%)" offset="0.0625"/><stop stop-opacity="1" stop-color="rgb(36.247253%, 41.268921%, 99.794006%)" offset="0.0664062"/><stop stop-opacity="1" stop-color="rgb(36.509705%, 41.114807%, 99.781799%)" offset="0.0703125"/><stop stop-opacity="1" stop-color="rgb(36.77063%, 40.959167%, 99.769592%)" offset="0.0742188"/><stop stop-opacity="1" stop-color="rgb(37.033081%, 40.805054%, 99.757385%)" offset="0.078125"/><stop stop-opacity="1" stop-color="rgb(37.294006%, 40.65094%, 99.745178%)" offset="0.0820312"/><stop stop-opacity="1" stop-color="rgb(37.556458%, 40.496826%, 99.732971%)" offset="0.0859375"/><stop stop-opacity="1" stop-color="rgb(37.817383%, 40.341187%, 99.720764%)" offset="0.0898438"/><stop stop-opacity="1" stop-color="rgb(38.079834%, 40.187073%, 99.708557%)" offset="0.09375"/><stop stop-opacity="1" stop-color="rgb(38.340759%, 40.031433%, 99.69635%)" offset="0.0976562"/><stop stop-opacity="1" stop-color="rgb(38.60321%, 39.877319%, 99.684143%)" offset="0.101562"/><stop stop-opacity="1" stop-color="rgb(38.865662%, 39.72168%, 99.671936%)" offset="0.105469"/><stop stop-opacity="1" stop-color="rgb(39.128113%, 39.567566%, 99.659729%)" offset="0.109375"/><stop stop-opacity="1" stop-color="rgb(39.389038%, 39.413452%, 99.647522%)" offset="0.113281"/><stop stop-opacity="1" stop-color="rgb(39.651489%, 39.259338%, 99.635315%)" offset="0.117187"/><stop stop-opacity="1" stop-color="rgb(39.912415%, 39.103699%, 99.623108%)" offset="0.121094"/><stop stop-opacity="1" stop-color="rgb(40.174866%, 38.949585%, 99.612427%)" offset="0.125"/><stop stop-opacity="1" stop-color="rgb(40.435791%, 38.793945%, 99.60022%)" offset="0.128906"/><stop stop-opacity="1" stop-color="rgb(40.698242%, 38.639832%, 99.588013%)" offset="0.132812"/><stop stop-opacity="1" stop-color="rgb(40.959167%, 38.484192%, 99.575806%)" offset="0.136719"/><stop stop-opacity="1" stop-color="rgb(41.221619%, 38.330078%, 99.563599%)" offset="0.140625"/><stop stop-opacity="1" stop-color="rgb(41.482544%, 38.175964%, 99.551392%)" offset="0.144531"/><stop stop-opacity="1" stop-color="rgb(41.744995%, 38.021851%, 99.539185%)" offset="0.148438"/><stop stop-opacity="1" stop-color="rgb(42.00592%, 37.866211%, 99.526978%)" offset="0.152344"/><stop stop-opacity="1" stop-color="rgb(42.268372%, 37.712097%, 99.514771%)" offset="0.15625"/><stop stop-opacity="1" stop-color="rgb(42.529297%, 37.556458%, 99.502563%)" offset="0.160156"/><stop stop-opacity="1" stop-color="rgb(42.791748%, 37.402344%, 99.490356%)" offset="0.164062"/><stop stop-opacity="1" stop-color="rgb(43.052673%, 37.246704%, 99.478149%)" offset="0.167969"/><stop stop-opacity="1" stop-color="rgb(43.315125%, 37.09259%, 99.465942%)" offset="0.171875"/><stop stop-opacity="1" stop-color="rgb(43.57605%, 36.938477%, 99.453735%)" offset="0.175781"/><stop stop-opacity="1" stop-color="rgb(43.838501%, 36.784363%, 99.441528%)" offset="0.179688"/><stop stop-opacity="1" stop-color="rgb(44.099426%, 36.628723%, 99.429321%)" offset="0.183594"/><stop stop-opacity="1" stop-color="rgb(44.361877%, 36.474609%, 99.41864%)" offset="0.1875"/><stop stop-opacity="1" stop-color="rgb(44.622803%, 36.31897%, 99.406433%)" offset="0.191406"/><stop stop-opacity="1" stop-color="rgb(44.885254%, 36.164856%, 99.394226%)" offset="0.195312"/><stop stop-opacity="1" stop-color="rgb(45.146179%, 36.009216%, 99.382019%)" offset="0.199219"/><stop stop-opacity="1" stop-color="rgb(45.40863%, 35.855103%, 99.369812%)" offset="0.203125"/><stop stop-opacity="1" stop-color="rgb(45.669556%, 35.700989%, 99.357605%)" offset="0.207031"/><stop stop-opacity="1" stop-color="rgb(45.932007%, 35.546875%, 99.345398%)" offset="0.210937"/><stop stop-opacity="1" stop-color="rgb(46.192932%, 35.391235%, 99.333191%)" offset="0.214844"/><stop stop-opacity="1" stop-color="rgb(46.455383%, 35.237122%, 99.320984%)" offset="0.21875"/><stop stop-opacity="1" stop-color="rgb(46.716309%, 35.081482%, 99.308777%)" offset="0.222656"/><stop stop-opacity="1" stop-color="rgb(46.97876%, 34.927368%, 99.29657%)" offset="0.226562"/><stop stop-opacity="1" stop-color="rgb(47.239685%, 34.771729%, 99.284363%)" offset="0.230469"/><stop stop-opacity="1" stop-color="rgb(47.502136%, 34.617615%, 99.272156%)" offset="0.234375"/><stop stop-opacity="1" stop-color="rgb(47.763062%, 34.461975%, 99.259949%)" offset="0.238281"/><stop stop-opacity="1" stop-color="rgb(48.025513%, 34.307861%, 99.247742%)" offset="0.242187"/><stop stop-opacity="1" stop-color="rgb(48.286438%, 34.153748%, 99.235535%)" offset="0.246094"/><stop stop-opacity="1" stop-color="rgb(48.548889%, 33.999634%, 99.224854%)" offset="0.25"/><stop stop-opacity="1" stop-color="rgb(48.809814%, 33.843994%, 99.212646%)" offset="0.253906"/><stop stop-opacity="1" stop-color="rgb(49.072266%, 33.68988%, 99.200439%)" offset="0.257812"/><stop stop-opacity="1" stop-color="rgb(49.333191%, 33.534241%, 99.188232%)" offset="0.261719"/><stop stop-opacity="1" stop-color="rgb(49.595642%, 33.380127%, 99.176025%)" offset="0.265625"/><stop stop-opacity="1" stop-color="rgb(49.856567%, 33.224487%, 99.163818%)" offset="0.269531"/><stop stop-opacity="1" stop-color="rgb(50.119019%, 33.070374%, 99.151611%)" offset="0.273437"/><stop stop-opacity="1" stop-color="rgb(50.379944%, 32.91626%, 99.139404%)" offset="0.277344"/><stop stop-opacity="1" stop-color="rgb(50.642395%, 32.762146%, 99.127197%)" offset="0.28125"/><stop stop-opacity="1" stop-color="rgb(50.90332%, 32.606506%, 99.11499%)" offset="0.285156"/><stop stop-opacity="1" stop-color="rgb(51.165771%, 32.452393%, 99.102783%)" offset="0.289062"/><stop stop-opacity="1" stop-color="rgb(51.426697%, 32.296753%, 99.090576%)" offset="0.292969"/><stop stop-opacity="1" stop-color="rgb(51.689148%, 32.142639%, 99.078369%)" offset="0.296875"/><stop stop-opacity="1" stop-color="rgb(51.951599%, 31.987%, 99.066162%)" offset="0.300781"/><stop stop-opacity="1" stop-color="rgb(52.21405%, 31.832886%, 99.053955%)" offset="0.304688"/><stop stop-opacity="1" stop-color="rgb(52.474976%, 31.678772%, 99.041748%)" offset="0.308594"/><stop stop-opacity="1" stop-color="rgb(52.737427%, 31.524658%, 99.031067%)" offset="0.3125"/><stop stop-opacity="1" stop-color="rgb(52.998352%, 31.369019%, 99.01886%)" offset="0.316406"/><stop stop-opacity="1" stop-color="rgb(53.260803%, 31.214905%, 99.006653%)" offset="0.320312"/><stop stop-opacity="1" stop-color="rgb(53.521729%, 31.059265%, 98.994446%)" offset="0.324219"/><stop stop-opacity="1" stop-color="rgb(53.78418%, 30.905151%, 98.982239%)" offset="0.328125"/><stop stop-opacity="1" stop-color="rgb(54.045105%, 30.749512%, 98.970032%)" offset="0.332031"/><stop stop-opacity="1" stop-color="rgb(54.307556%, 30.595398%, 98.957825%)" offset="0.335938"/><stop stop-opacity="1" stop-color="rgb(54.568481%, 30.441284%, 98.945618%)" offset="0.339844"/><stop stop-opacity="1" stop-color="rgb(54.830933%, 30.28717%, 98.933411%)" offset="0.34375"/><stop stop-opacity="1" stop-color="rgb(55.091858%, 30.131531%, 98.921204%)" offset="0.347656"/><stop stop-opacity="1" stop-color="rgb(55.354309%, 29.977417%, 98.908997%)" offset="0.351562"/><stop stop-opacity="1" stop-color="rgb(55.615234%, 29.821777%, 98.89679%)" offset="0.355469"/><stop stop-opacity="1" stop-color="rgb(55.877686%, 29.667664%, 98.884583%)" offset="0.359375"/><stop stop-opacity="1" stop-color="rgb(56.138611%, 29.512024%, 98.872375%)" offset="0.363281"/><stop stop-opacity="1" stop-color="rgb(56.401062%, 29.35791%, 98.861694%)" offset="0.367187"/><stop stop-opacity="1" stop-color="rgb(56.661987%, 29.203796%, 98.849487%)" offset="0.371094"/><stop stop-opacity="1" stop-color="rgb(56.924438%, 29.049683%, 98.83728%)" offset="0.375"/><stop stop-opacity="1" stop-color="rgb(57.185364%, 28.894043%, 98.825073%)" offset="0.378906"/><stop stop-opacity="1" stop-color="rgb(57.447815%, 28.739929%, 98.812866%)" offset="0.382812"/><stop stop-opacity="1" stop-color="rgb(57.70874%, 28.58429%, 98.800659%)" offset="0.386719"/><stop stop-opacity="1" stop-color="rgb(57.971191%, 28.430176%, 98.788452%)" offset="0.390625"/><stop stop-opacity="1" stop-color="rgb(58.232117%, 28.274536%, 98.776245%)" offset="0.394531"/><stop stop-opacity="1" stop-color="rgb(58.494568%, 28.120422%, 98.764038%)" offset="0.398437"/><stop stop-opacity="1" stop-color="rgb(58.755493%, 27.966309%, 98.751831%)" offset="0.402344"/><stop stop-opacity="1" stop-color="rgb(59.017944%, 27.812195%, 98.739624%)" offset="0.40625"/><stop stop-opacity="1" stop-color="rgb(59.27887%, 27.656555%, 98.727417%)" offset="0.410156"/><stop stop-opacity="1" stop-color="rgb(59.541321%, 27.502441%, 98.71521%)" offset="0.414062"/><stop stop-opacity="1" stop-color="rgb(59.802246%, 27.346802%, 98.703003%)" offset="0.417969"/><stop stop-opacity="1" stop-color="rgb(60.064697%, 27.192688%, 98.690796%)" offset="0.421875"/><stop stop-opacity="1" stop-color="rgb(60.325623%, 27.037048%, 98.678589%)" offset="0.425781"/><stop stop-opacity="1" stop-color="rgb(60.588074%, 26.882935%, 98.667908%)" offset="0.429687"/><stop stop-opacity="1" stop-color="rgb(60.848999%, 26.728821%, 98.655701%)" offset="0.433594"/><stop stop-opacity="1" stop-color="rgb(61.11145%, 26.574707%, 98.643494%)" offset="0.4375"/><stop stop-opacity="1" stop-color="rgb(61.372375%, 26.419067%, 98.631287%)" offset="0.441406"/><stop stop-opacity="1" stop-color="rgb(61.634827%, 26.264954%, 98.61908%)" offset="0.445312"/><stop stop-opacity="1" stop-color="rgb(61.895752%, 26.109314%, 98.606873%)" offset="0.449219"/><stop stop-opacity="1" stop-color="rgb(62.158203%, 25.9552%, 98.594666%)" offset="0.453125"/><stop stop-opacity="1" stop-color="rgb(62.419128%, 25.799561%, 98.582458%)" offset="0.457031"/><stop stop-opacity="1" stop-color="rgb(62.68158%, 25.645447%, 98.570251%)" offset="0.460938"/><stop stop-opacity="1" stop-color="rgb(62.942505%, 25.491333%, 98.558044%)" offset="0.464844"/><stop stop-opacity="1" stop-color="rgb(63.204956%, 25.337219%, 98.545837%)" offset="0.46875"/><stop stop-opacity="1" stop-color="rgb(63.465881%, 25.18158%, 98.53363%)" offset="0.472656"/><stop stop-opacity="1" stop-color="rgb(63.728333%, 25.027466%, 98.521423%)" offset="0.476562"/><stop stop-opacity="1" stop-color="rgb(63.989258%, 24.871826%, 98.509216%)" offset="0.480469"/><stop stop-opacity="1" stop-color="rgb(64.251709%, 24.717712%, 98.497009%)" offset="0.484375"/><stop stop-opacity="1" stop-color="rgb(64.512634%, 24.562073%, 98.484802%)" offset="0.488281"/><stop stop-opacity="1" stop-color="rgb(64.775085%, 24.407959%, 98.474121%)" offset="0.492187"/><stop stop-opacity="1" stop-color="rgb(65.037537%, 24.253845%, 98.461914%)" offset="0.496094"/><stop stop-opacity="1" stop-color="rgb(65.299988%, 24.099731%, 98.449707%)" offset="0.5"/><stop stop-opacity="1" stop-color="rgb(65.560913%, 23.944092%, 98.4375%)" offset="0.503906"/><stop stop-opacity="1" stop-color="rgb(65.823364%, 23.789978%, 98.425293%)" offset="0.507812"/><stop stop-opacity="1" stop-color="rgb(66.08429%, 23.634338%, 98.413086%)" offset="0.511719"/><stop stop-opacity="1" stop-color="rgb(66.346741%, 23.480225%, 98.400879%)" offset="0.515625"/><stop stop-opacity="1" stop-color="rgb(66.607666%, 23.324585%, 98.388672%)" offset="0.519531"/><stop stop-opacity="1" stop-color="rgb(66.870117%, 23.170471%, 98.376465%)" offset="0.523437"/><stop stop-opacity="1" stop-color="rgb(67.131042%, 23.016357%, 98.364258%)" offset="0.527344"/><stop stop-opacity="1" stop-color="rgb(67.393494%, 22.862244%, 98.352051%)" offset="0.53125"/><stop stop-opacity="1" stop-color="rgb(67.654419%, 22.706604%, 98.339844%)" offset="0.535156"/><stop stop-opacity="1" stop-color="rgb(67.91687%, 22.55249%, 98.327637%)" offset="0.539062"/><stop stop-opacity="1" stop-color="rgb(68.177795%, 22.396851%, 98.31543%)" offset="0.542969"/><stop stop-opacity="1" stop-color="rgb(68.440247%, 22.242737%, 98.303223%)" offset="0.546875"/><stop stop-opacity="1" stop-color="rgb(68.701172%, 22.087097%, 98.291016%)" offset="0.550781"/><stop stop-opacity="1" stop-color="rgb(68.963623%, 21.932983%, 98.280334%)" offset="0.554687"/><stop stop-opacity="1" stop-color="rgb(69.224548%, 21.77887%, 98.268127%)" offset="0.558594"/><stop stop-opacity="1" stop-color="rgb(69.487%, 21.624756%, 98.25592%)" offset="0.5625"/><stop stop-opacity="1" stop-color="rgb(69.747925%, 21.469116%, 98.243713%)" offset="0.566406"/><stop stop-opacity="1" stop-color="rgb(70.010376%, 21.315002%, 98.231506%)" offset="0.570312"/><stop stop-opacity="1" stop-color="rgb(70.271301%, 21.159363%, 98.219299%)" offset="0.574219"/><stop stop-opacity="1" stop-color="rgb(70.533752%, 21.005249%, 98.207092%)" offset="0.578125"/><stop stop-opacity="1" stop-color="rgb(70.794678%, 20.849609%, 98.194885%)" offset="0.582031"/><stop stop-opacity="1" stop-color="rgb(71.057129%, 20.695496%, 98.182678%)" offset="0.585938"/><stop stop-opacity="1" stop-color="rgb(71.318054%, 20.541382%, 98.170471%)" offset="0.589844"/><stop stop-opacity="1" stop-color="rgb(71.580505%, 20.387268%, 98.158264%)" offset="0.59375"/><stop stop-opacity="1" stop-color="rgb(71.841431%, 20.231628%, 98.146057%)" offset="0.597656"/><stop stop-opacity="1" stop-color="rgb(72.103882%, 20.077515%, 98.13385%)" offset="0.601562"/><stop stop-opacity="1" stop-color="rgb(72.364807%, 19.921875%, 98.121643%)" offset="0.605469"/><stop stop-opacity="1" stop-color="rgb(72.627258%, 19.767761%, 98.109436%)" offset="0.609375"/><stop stop-opacity="1" stop-color="rgb(72.888184%, 19.612122%, 98.097229%)" offset="0.613281"/><stop stop-opacity="1" stop-color="rgb(73.150635%, 19.458008%, 98.086548%)" offset="0.617187"/><stop stop-opacity="1" stop-color="rgb(73.41156%, 19.303894%, 98.074341%)" offset="0.621094"/><stop stop-opacity="1" stop-color="rgb(73.674011%, 19.14978%, 98.062134%)" offset="0.625"/><stop stop-opacity="1" stop-color="rgb(73.934937%, 18.994141%, 98.049927%)" offset="0.628906"/><stop stop-opacity="1" stop-color="rgb(74.197388%, 18.840027%, 98.03772%)" offset="0.632812"/><stop stop-opacity="1" stop-color="rgb(74.458313%, 18.684387%, 98.025513%)" offset="0.636719"/><stop stop-opacity="1" stop-color="rgb(74.720764%, 18.530273%, 98.013306%)" offset="0.640625"/><stop stop-opacity="1" stop-color="rgb(74.981689%, 18.374634%, 98.001099%)" offset="0.644531"/><stop stop-opacity="1" stop-color="rgb(75.244141%, 18.22052%, 97.988892%)" offset="0.648437"/><stop stop-opacity="1" stop-color="rgb(75.505066%, 18.066406%, 97.976685%)" offset="0.652344"/><stop stop-opacity="1" stop-color="rgb(75.767517%, 17.912292%, 97.964478%)" offset="0.65625"/><stop stop-opacity="1" stop-color="rgb(76.028442%, 17.756653%, 97.952271%)" offset="0.660156"/><stop stop-opacity="1" stop-color="rgb(76.290894%, 17.602539%, 97.940063%)" offset="0.664062"/><stop stop-opacity="1" stop-color="rgb(76.551819%, 17.446899%, 97.927856%)" offset="0.667969"/><stop stop-opacity="1" stop-color="rgb(76.81427%, 17.292786%, 97.917175%)" offset="0.671875"/><stop stop-opacity="1" stop-color="rgb(77.075195%, 17.137146%, 97.904968%)" offset="0.675781"/><stop stop-opacity="1" stop-color="rgb(77.337646%, 16.983032%, 97.892761%)" offset="0.679688"/><stop stop-opacity="1" stop-color="rgb(77.598572%, 16.828918%, 97.880554%)" offset="0.683594"/><stop stop-opacity="1" stop-color="rgb(77.861023%, 16.674805%, 97.868347%)" offset="0.6875"/><stop stop-opacity="1" stop-color="rgb(78.123474%, 16.519165%, 97.85614%)" offset="0.691406"/><stop stop-opacity="1" stop-color="rgb(78.385925%, 16.365051%, 97.843933%)" offset="0.695312"/><stop stop-opacity="1" stop-color="rgb(78.646851%, 16.209412%, 97.831726%)" offset="0.699219"/><stop stop-opacity="1" stop-color="rgb(78.909302%, 16.055298%, 97.819519%)" offset="0.703125"/><stop stop-opacity="1" stop-color="rgb(79.170227%, 15.899658%, 97.807312%)" offset="0.707031"/><stop stop-opacity="1" stop-color="rgb(79.432678%, 15.745544%, 97.795105%)" offset="0.710937"/><stop stop-opacity="1" stop-color="rgb(79.693604%, 15.591431%, 97.782898%)" offset="0.714844"/><stop stop-opacity="1" stop-color="rgb(79.956055%, 15.437317%, 97.770691%)" offset="0.71875"/><stop stop-opacity="1" stop-color="rgb(80.21698%, 15.281677%, 97.758484%)" offset="0.722656"/><stop stop-opacity="1" stop-color="rgb(80.479431%, 15.127563%, 97.746277%)" offset="0.726562"/><stop stop-opacity="1" stop-color="rgb(80.740356%, 14.971924%, 97.73407%)" offset="0.730469"/><stop stop-opacity="1" stop-color="rgb(81.002808%, 14.81781%, 97.723389%)" offset="0.734375"/><stop stop-opacity="1" stop-color="rgb(81.263733%, 14.66217%, 97.711182%)" offset="0.738281"/><stop stop-opacity="1" stop-color="rgb(81.526184%, 14.508057%, 97.698975%)" offset="0.742187"/><stop stop-opacity="1" stop-color="rgb(81.787109%, 14.353943%, 97.686768%)" offset="0.746094"/><stop stop-opacity="1" stop-color="rgb(82.049561%, 14.199829%, 97.674561%)" offset="0.75"/><stop stop-opacity="1" stop-color="rgb(82.310486%, 14.044189%, 97.662354%)" offset="0.753906"/><stop stop-opacity="1" stop-color="rgb(82.572937%, 13.890076%, 97.650146%)" offset="0.757812"/><stop stop-opacity="1" stop-color="rgb(82.833862%, 13.734436%, 97.637939%)" offset="0.761719"/><stop stop-opacity="1" stop-color="rgb(83.096313%, 13.580322%, 97.625732%)" offset="0.765625"/><stop stop-opacity="1" stop-color="rgb(83.357239%, 13.424683%, 97.613525%)" offset="0.769531"/><stop stop-opacity="1" stop-color="rgb(83.61969%, 13.270569%, 97.601318%)" offset="0.773437"/><stop stop-opacity="1" stop-color="rgb(83.880615%, 13.116455%, 97.589111%)" offset="0.777344"/><stop stop-opacity="1" stop-color="rgb(84.143066%, 12.962341%, 97.576904%)" offset="0.78125"/><stop stop-opacity="1" stop-color="rgb(84.403992%, 12.806702%, 97.564697%)" offset="0.785156"/><stop stop-opacity="1" stop-color="rgb(84.666443%, 12.652588%, 97.55249%)" offset="0.789062"/><stop stop-opacity="1" stop-color="rgb(84.927368%, 12.496948%, 97.540283%)" offset="0.792969"/><stop stop-opacity="1" stop-color="rgb(85.189819%, 12.342834%, 97.529602%)" offset="0.796875"/><stop stop-opacity="1" stop-color="rgb(85.450745%, 12.187195%, 97.517395%)" offset="0.800781"/><stop stop-opacity="1" stop-color="rgb(85.713196%, 12.033081%, 97.505188%)" offset="0.804687"/><stop stop-opacity="1" stop-color="rgb(85.974121%, 11.878967%, 97.492981%)" offset="0.808594"/><stop stop-opacity="1" stop-color="rgb(86.236572%, 11.724854%, 97.480774%)" offset="0.8125"/><stop stop-opacity="1" stop-color="rgb(86.497498%, 11.569214%, 97.468567%)" offset="0.816406"/><stop stop-opacity="1" stop-color="rgb(86.759949%, 11.4151%, 97.45636%)" offset="0.820312"/><stop stop-opacity="1" stop-color="rgb(87.020874%, 11.25946%, 97.444153%)" offset="0.824219"/><stop stop-opacity="1" stop-color="rgb(87.283325%, 11.105347%, 97.431946%)" offset="0.828125"/><stop stop-opacity="1" stop-color="rgb(87.54425%, 10.949707%, 97.419739%)" offset="0.832031"/><stop stop-opacity="1" stop-color="rgb(87.806702%, 10.795593%, 97.407532%)" offset="0.835937"/><stop stop-opacity="1" stop-color="rgb(88.067627%, 10.641479%, 97.395325%)" offset="0.839844"/><stop stop-opacity="1" stop-color="rgb(88.330078%, 10.487366%, 97.383118%)" offset="0.84375"/><stop stop-opacity="1" stop-color="rgb(88.591003%, 10.331726%, 97.370911%)" offset="0.847656"/><stop stop-opacity="1" stop-color="rgb(88.853455%, 10.177612%, 97.358704%)" offset="0.851562"/><stop stop-opacity="1" stop-color="rgb(89.11438%, 10.021973%, 97.346497%)" offset="0.855469"/><stop stop-opacity="1" stop-color="rgb(89.376831%, 9.867859%, 97.335815%)" offset="0.859375"/><stop stop-opacity="1" stop-color="rgb(89.637756%, 9.712219%, 97.323608%)" offset="0.863281"/><stop stop-opacity="1" stop-color="rgb(89.900208%, 9.558105%, 97.311401%)" offset="0.867187"/><stop stop-opacity="1" stop-color="rgb(90.161133%, 9.403992%, 97.299194%)" offset="0.871094"/><stop stop-opacity="1" stop-color="rgb(90.423584%, 9.249878%, 97.286987%)" offset="0.875"/><stop stop-opacity="1" stop-color="rgb(90.684509%, 9.094238%, 97.27478%)" offset="0.878906"/><stop stop-opacity="1" stop-color="rgb(90.94696%, 8.940125%, 97.262573%)" offset="0.882812"/><stop stop-opacity="1" stop-color="rgb(91.209412%, 8.784485%, 97.250366%)" offset="0.886719"/><stop stop-opacity="1" stop-color="rgb(91.471863%, 8.630371%, 97.238159%)" offset="0.890625"/><stop stop-opacity="1" stop-color="rgb(91.732788%, 8.474731%, 97.225952%)" offset="0.894531"/><stop stop-opacity="1" stop-color="rgb(91.995239%, 8.320618%, 97.213745%)" offset="0.898438"/><stop stop-opacity="1" stop-color="rgb(92.256165%, 8.166504%, 97.201538%)" offset="0.902344"/><stop stop-opacity="1" stop-color="rgb(92.518616%, 8.01239%, 97.189331%)" offset="0.90625"/><stop stop-opacity="1" stop-color="rgb(92.779541%, 7.85675%, 97.177124%)" offset="0.910156"/><stop stop-opacity="1" stop-color="rgb(93.041992%, 7.702637%, 97.164917%)" offset="0.914062"/><stop stop-opacity="1" stop-color="rgb(93.302917%, 7.546997%, 97.15271%)" offset="0.917969"/><stop stop-opacity="1" stop-color="rgb(93.565369%, 7.392883%, 97.142029%)" offset="0.921875"/><stop stop-opacity="1" stop-color="rgb(93.826294%, 7.237244%, 97.129822%)" offset="0.925781"/><stop stop-opacity="1" stop-color="rgb(94.088745%, 7.08313%, 97.117615%)" offset="0.929687"/><stop stop-opacity="1" stop-color="rgb(94.34967%, 6.929016%, 97.105408%)" offset="0.933594"/><stop stop-opacity="1" stop-color="rgb(94.612122%, 6.774902%, 97.093201%)" offset="0.9375"/><stop stop-opacity="1" stop-color="rgb(94.873047%, 6.619263%, 97.080994%)" offset="0.941406"/><stop stop-opacity="1" stop-color="rgb(95.135498%, 6.465149%, 97.068787%)" offset="0.945312"/><stop stop-opacity="1" stop-color="rgb(95.396423%, 6.309509%, 97.05658%)" offset="0.949219"/><stop stop-opacity="1" stop-color="rgb(95.658875%, 6.155396%, 97.044373%)" offset="0.953125"/><stop stop-opacity="1" stop-color="rgb(95.9198%, 5.999756%, 97.032166%)" offset="0.957031"/><stop stop-opacity="1" stop-color="rgb(96.182251%, 5.845642%, 97.019958%)" offset="0.960937"/><stop stop-opacity="1" stop-color="rgb(96.443176%, 5.691528%, 97.007751%)" offset="0.964844"/><stop stop-opacity="1" stop-color="rgb(96.705627%, 5.537415%, 96.995544%)" offset="0.96875"/><stop stop-opacity="1" stop-color="rgb(96.966553%, 5.381775%, 96.983337%)" offset="0.972656"/><stop stop-opacity="1" stop-color="rgb(97.229004%, 5.227661%, 96.972656%)" offset="0.976562"/><stop stop-opacity="1" stop-color="rgb(97.489929%, 5.072021%, 96.960449%)" offset="0.980469"/><stop stop-opacity="1" stop-color="rgb(97.75238%, 4.917908%, 96.948242%)" offset="0.984375"/><stop stop-opacity="1" stop-color="rgb(98.013306%, 4.762268%, 96.936035%)" offset="0.988281"/><stop stop-opacity="1" stop-color="rgb(98.275757%, 4.608154%, 96.923828%)" offset="0.992188"/><stop stop-opacity="1" stop-color="rgb(98.536682%, 4.454041%, 96.911621%)" offset="0.996094"/><stop stop-opacity="1" stop-color="rgb(98.799133%, 4.299927%, 96.899414%)" offset="1"/></linearGradient><clipPath id="507820a9d8"><path d="M 10.394531 9.164062 L 19.832031 9.164062 L 19.832031 20 L 10.394531 20 Z M 10.394531 9.164062 " clip-rule="nonzero"/></clipPath></defs><path fill="#7d3ef0" d="M 11.035156 22.582031 C 11.097656 22.613281 11.15625 22.640625 11.21875 22.667969 L 11.300781 22.488281 C 11.242188 22.460938 11.183594 22.433594 11.125 22.40625 L 11.035156 22.582031 " fill-opacity="1" fill-rule="nonzero"/><path fill="#7d3ef0" d="M 9.996094 21.980469 C 10.050781 22.019531 10.109375 22.054688 10.164062 22.089844 L 10.269531 21.925781 C 10.214844 21.890625 10.160156 21.855469 10.105469 21.816406 L 9.996094 21.980469 " fill-opacity="1" fill-rule="nonzero"/><path fill="#7d3ef0" d="M 10.65625 6.636719 L 10.75 6.8125 C 10.808594 6.777344 10.867188 6.75 10.921875 6.71875 L 10.832031 6.542969 C 10.773438 6.574219 10.714844 6.605469 10.65625 6.636719 " fill-opacity="1" fill-rule="nonzero"/><path fill="#7d3ef0" d="M 10.507812 22.300781 C 10.5625 22.332031 10.621094 22.367188 10.679688 22.398438 L 10.777344 22.226562 C 10.71875 22.191406 10.660156 22.160156 10.605469 22.128906 L 10.507812 22.300781 " fill-opacity="1" fill-rule="nonzero"/><path fill="#7d3ef0" d="M 11.585938 22.828125 C 11.648438 22.855469 11.710938 22.878906 11.773438 22.902344 L 11.84375 22.71875 C 11.78125 22.695312 11.722656 22.671875 11.660156 22.648438 L 11.585938 22.828125 " fill-opacity="1" fill-rule="nonzero"/><g clip-path="url(#0cf648f110)"><path fill="#7d3ef0" d="M 12.726562 23.210938 C 12.789062 23.226562 12.855469 23.242188 12.921875 23.257812 L 12.964844 23.066406 C 12.902344 23.050781 12.839844 23.035156 12.777344 23.019531 L 12.726562 23.210938 " fill-opacity="1" fill-rule="nonzero"/></g><g clip-path="url(#783f2dbc6a)"><path fill="#7d3ef0" d="M 13.472656 5.652344 L 13.507812 5.847656 C 13.570312 5.835938 13.636719 5.824219 13.699219 5.816406 L 13.671875 5.621094 C 13.605469 5.628906 13.539062 5.640625 13.472656 5.652344 " fill-opacity="1" fill-rule="nonzero"/></g><g clip-path="url(#51f7effaa0)"><path fill="#7d3ef0" d="M 13.3125 23.339844 C 13.378906 23.355469 13.441406 23.363281 13.507812 23.375 L 13.542969 23.179688 C 13.476562 23.171875 13.414062 23.160156 13.347656 23.148438 L 13.3125 23.339844 " fill-opacity="1" fill-rule="nonzero"/></g><g clip-path="url(#608e29e237)"><path fill="#7d3ef0" d="M 12.308594 5.933594 L 12.367188 6.121094 C 12.429688 6.101562 12.492188 6.082031 12.554688 6.066406 L 12.5 5.875 C 12.433594 5.894531 12.371094 5.914062 12.308594 5.933594 " fill-opacity="1" fill-rule="nonzero"/></g><path fill="#7d3ef0" d="M 11.738281 6.128906 L 11.8125 6.316406 C 11.871094 6.292969 11.933594 6.269531 11.996094 6.246094 L 11.925781 6.058594 C 11.863281 6.082031 11.800781 6.105469 11.738281 6.128906 " fill-opacity="1" fill-rule="nonzero"/><path fill="#7d3ef0" d="M 23.515625 12.347656 L 23.707031 12.296875 C 23.691406 12.234375 23.671875 12.167969 23.65625 12.105469 L 23.464844 12.15625 C 23.484375 12.21875 23.5 12.28125 23.515625 12.347656 " fill-opacity="1" fill-rule="nonzero"/><path fill="#7d3ef0" d="M 23.640625 12.917969 L 23.835938 12.882812 C 23.820312 12.816406 23.808594 12.753906 23.796875 12.6875 L 23.601562 12.726562 C 23.617188 12.792969 23.628906 12.855469 23.640625 12.917969 " fill-opacity="1" fill-rule="nonzero"/><g clip-path="url(#33d7e98f74)"><path fill="#7d3ef0" d="M 6.207031 14.332031 L 6.007812 14.328125 C 6.007812 14.390625 6.007812 14.449219 6.007812 14.511719 L 6.007812 14.527344 L 6.203125 14.511719 C 6.203125 14.449219 6.203125 14.390625 6.207031 14.332031 " fill-opacity="1" fill-rule="nonzero"/></g><g clip-path="url(#715abada80)"><path fill="#7d3ef0" d="M 13.90625 23.433594 C 13.972656 23.441406 14.039062 23.449219 14.105469 23.453125 L 14.125 23.257812 C 14.058594 23.25 13.992188 23.246094 13.929688 23.238281 L 13.90625 23.433594 " fill-opacity="1" fill-rule="nonzero"/></g><path fill="#7d3ef0" d="M 9.507812 21.628906 C 9.5625 21.671875 9.613281 21.710938 9.667969 21.75 L 9.785156 21.59375 C 9.734375 21.554688 9.679688 21.515625 9.628906 21.472656 L 9.507812 21.628906 " fill-opacity="1" fill-rule="nonzero"/><path fill="#7d3ef0" d="M 23.75 15.292969 L 23.945312 15.308594 C 23.953125 15.242188 23.957031 15.175781 23.960938 15.109375 L 23.765625 15.097656 C 23.761719 15.164062 23.753906 15.226562 23.75 15.292969 " fill-opacity="1" fill-rule="nonzero"/><path fill="#7d3ef0" d="M 23.773438 14.085938 L 23.972656 14.074219 C 23.96875 14.007812 23.964844 13.941406 23.960938 13.875 L 23.761719 13.890625 C 23.765625 13.953125 23.769531 14.019531 23.773438 14.085938 " fill-opacity="1" fill-rule="nonzero"/><path fill="#7d3ef0" d="M 23.726562 13.5 L 23.921875 13.476562 C 23.914062 13.410156 23.90625 13.34375 23.898438 13.277344 L 23.703125 13.304688 C 23.710938 13.371094 23.71875 13.433594 23.726562 13.5 " fill-opacity="1" fill-rule="nonzero"/><g clip-path="url(#08ba0c6a9e)"><path fill="#7d3ef0" d="M 6.886719 18.398438 C 6.917969 18.457031 6.945312 18.515625 6.976562 18.574219 L 7.152344 18.488281 C 7.125 18.429688 7.09375 18.371094 7.066406 18.3125 L 6.886719 18.398438 " fill-opacity="1" fill-rule="nonzero"/></g><path fill="#7d3ef0" d="M 8.609375 20.835938 C 8.65625 20.882812 8.703125 20.929688 8.75 20.976562 L 8.890625 20.835938 C 8.84375 20.789062 8.796875 20.742188 8.75 20.695312 L 8.609375 20.835938 " fill-opacity="1" fill-rule="nonzero"/><path fill="#7d3ef0" d="M 9.179688 7.660156 L 9.304688 7.808594 C 9.355469 7.765625 9.40625 7.726562 9.457031 7.683594 L 9.332031 7.53125 C 9.28125 7.574219 9.230469 7.617188 9.179688 7.660156 " fill-opacity="1" fill-rule="nonzero"/><path fill="#7d3ef0" d="M 8.316406 8.496094 L 8.464844 8.625 C 8.507812 8.578125 8.550781 8.53125 8.597656 8.484375 L 8.453125 8.347656 C 8.40625 8.394531 8.363281 8.445312 8.316406 8.496094 " fill-opacity="1" fill-rule="nonzero"/><path fill="#7d3ef0" d="M 7.824219 19.929688 C 7.863281 19.984375 7.902344 20.035156 7.945312 20.089844 L 8.101562 19.964844 C 8.058594 19.914062 8.019531 19.863281 7.980469 19.8125 L 7.824219 19.929688 " fill-opacity="1" fill-rule="nonzero"/><g clip-path="url(#c740fca27b)"><path fill="#7d3ef0" d="M 15.261719 5.726562 C 15.328125 5.726562 15.390625 5.730469 15.457031 5.734375 L 15.46875 5.535156 C 15.402344 5.53125 15.335938 5.53125 15.265625 5.527344 L 15.261719 5.726562 " fill-opacity="1" fill-rule="nonzero"/></g><path fill="#7d3ef0" d="M 19.195312 6.789062 C 19.253906 6.820312 19.3125 6.851562 19.367188 6.882812 L 19.464844 6.714844 C 19.410156 6.679688 19.351562 6.648438 19.292969 6.617188 L 19.195312 6.789062 " fill-opacity="1" fill-rule="nonzero"/><path fill="#7d3ef0" d="M 19.558594 22.023438 L 19.664062 22.191406 C 19.71875 22.15625 19.777344 22.121094 19.832031 22.085938 L 19.726562 21.917969 C 19.671875 21.953125 19.617188 21.988281 19.558594 22.023438 " fill-opacity="1" fill-rule="nonzero"/><path fill="#7d3ef0" d="M 20.050781 21.703125 L 20.164062 21.863281 C 20.21875 21.824219 20.273438 21.785156 20.324219 21.746094 L 20.207031 21.585938 C 20.15625 21.625 20.101562 21.664062 20.050781 21.703125 " fill-opacity="1" fill-rule="nonzero"/><path fill="#7d3ef0" d="M 18.128906 6.296875 C 18.191406 6.320312 18.25 6.34375 18.3125 6.367188 L 18.386719 6.1875 C 18.324219 6.160156 18.261719 6.136719 18.199219 6.113281 L 18.128906 6.296875 " fill-opacity="1" fill-rule="nonzero"/><path fill="#7d3ef0" d="M 20.1875 7.417969 C 20.242188 7.457031 20.292969 7.496094 20.34375 7.535156 L 20.464844 7.378906 C 20.414062 7.339844 20.359375 7.300781 20.304688 7.261719 L 20.1875 7.417969 " fill-opacity="1" fill-rule="nonzero"/><path fill="#7d3ef0" d="M 19.050781 22.3125 L 19.140625 22.488281 C 19.199219 22.457031 19.257812 22.425781 19.316406 22.390625 L 19.222656 22.21875 C 19.164062 22.25 19.105469 22.28125 19.050781 22.3125 " fill-opacity="1" fill-rule="nonzero"/><path fill="#7d3ef0" d="M 17.976562 22.78125 L 18.042969 22.96875 C 18.105469 22.945312 18.167969 22.921875 18.230469 22.898438 L 18.160156 22.714844 C 18.097656 22.738281 18.039062 22.757812 17.976562 22.78125 " fill-opacity="1" fill-rule="nonzero"/><path fill="#7d3ef0" d="M 22.75 18.648438 L 22.925781 18.742188 C 22.957031 18.683594 22.988281 18.625 23.015625 18.566406 L 22.839844 18.476562 C 22.8125 18.535156 22.78125 18.59375 22.75 18.648438 " fill-opacity="1" fill-rule="nonzero"/><path fill="#7d3ef0" d="M 23.980469 14.476562 L 23.785156 14.476562 L 23.785156 14.511719 C 23.785156 14.578125 23.78125 14.640625 23.78125 14.707031 L 23.980469 14.710938 C 23.980469 14.644531 23.980469 14.578125 23.980469 14.507812 L 23.980469 14.476562 " fill-opacity="1" fill-rule="nonzero"/><path fill="#7d3ef0" d="M 21.769531 20.113281 L 21.921875 20.238281 C 21.964844 20.1875 22.003906 20.132812 22.046875 20.082031 L 21.890625 19.960938 C 21.851562 20.011719 21.808594 20.0625 21.769531 20.113281 " fill-opacity="1" fill-rule="nonzero"/><path fill="#7d3ef0" d="M 20.960938 20.964844 L 21.097656 21.109375 C 21.144531 21.0625 21.191406 21.019531 21.242188 20.972656 L 21.105469 20.828125 C 21.058594 20.875 21.011719 20.917969 20.960938 20.964844 " fill-opacity="1" fill-rule="nonzero"/><path fill="#7d3ef0" d="M 21.378906 20.550781 L 21.523438 20.6875 C 21.570312 20.636719 21.613281 20.589844 21.660156 20.539062 L 21.511719 20.40625 C 21.46875 20.457031 21.425781 20.503906 21.378906 20.550781 " fill-opacity="1" fill-rule="nonzero"/><g clip-path="url(#129aa35479)"><path fill="#7d3ef0" d="M 17.417969 22.960938 L 17.472656 23.152344 C 17.535156 23.132812 17.601562 23.113281 17.664062 23.09375 L 17.605469 22.90625 C 17.542969 22.925781 17.480469 22.945312 17.417969 22.960938 " fill-opacity="1" fill-rule="nonzero"/></g><g clip-path="url(#df7ac46798)"><path fill="#7d3ef0" d="M 15.101562 23.300781 L 15.101562 23.496094 C 15.171875 23.496094 15.238281 23.496094 15.304688 23.492188 L 15.296875 23.296875 C 15.230469 23.296875 15.167969 23.300781 15.101562 23.300781 " fill-opacity="1" fill-rule="nonzero"/></g><g clip-path="url(#077e3d665a)"><path fill="#7d3ef0" d="M 17.570312 6.105469 C 17.636719 6.125 17.695312 6.144531 17.757812 6.164062 L 17.820312 5.976562 C 17.757812 5.957031 17.695312 5.9375 17.628906 5.917969 L 17.570312 6.105469 " fill-opacity="1" fill-rule="nonzero"/></g><path fill="#7d3ef0" d="M 7.164062 18.929688 C 7.199219 18.988281 7.230469 19.042969 7.265625 19.101562 L 7.433594 19 C 7.402344 18.945312 7.371094 18.886719 7.335938 18.832031 L 7.164062 18.929688 " fill-opacity="1" fill-rule="nonzero"/><g clip-path="url(#551de08867)"><path fill="#7d3ef0" d="M 14.667969 5.53125 L 14.675781 5.726562 C 14.738281 5.722656 14.804688 5.722656 14.871094 5.722656 L 14.867188 5.523438 C 14.800781 5.523438 14.734375 5.527344 14.667969 5.53125 " fill-opacity="1" fill-rule="nonzero"/></g><g clip-path="url(#c402e8dace)"><path fill="#7d3ef0" d="M 14.503906 23.484375 C 14.570312 23.488281 14.636719 23.492188 14.703125 23.492188 L 14.710938 23.296875 C 14.644531 23.292969 14.578125 23.292969 14.515625 23.289062 L 14.503906 23.484375 " fill-opacity="1" fill-rule="nonzero"/></g><g clip-path="url(#50c100ac43)"><path fill="#7d3ef0" d="M 15.847656 5.761719 C 15.914062 5.769531 15.976562 5.777344 16.042969 5.78125 L 16.066406 5.585938 C 16 5.578125 15.933594 5.570312 15.867188 5.566406 L 15.847656 5.761719 " fill-opacity="1" fill-rule="nonzero"/></g><path fill="#7d3ef0" d="M 23.679688 15.875 L 23.875 15.90625 C 23.882812 15.839844 23.894531 15.773438 23.902344 15.707031 L 23.707031 15.683594 C 23.699219 15.746094 23.6875 15.8125 23.679688 15.875 " fill-opacity="1" fill-rule="nonzero"/><g clip-path="url(#ceb9204796)"><path fill="#7d3ef0" d="M 14.070312 5.570312 L 14.089844 5.765625 C 14.152344 5.761719 14.21875 5.753906 14.285156 5.75 L 14.269531 5.550781 C 14.203125 5.558594 14.136719 5.5625 14.070312 5.570312 " fill-opacity="1" fill-rule="nonzero"/></g><g clip-path="url(#29f2a33f86)"><path fill="#7d3ef0" d="M 17.003906 5.953125 C 17.070312 5.96875 17.132812 5.984375 17.195312 6 L 17.246094 5.808594 C 17.179688 5.789062 17.113281 5.773438 17.050781 5.761719 L 17.003906 5.953125 " fill-opacity="1" fill-rule="nonzero"/></g><g clip-path="url(#6e042f7b08)"><path fill="#7d3ef0" d="M 16.429688 5.839844 C 16.492188 5.847656 16.558594 5.859375 16.621094 5.871094 L 16.660156 5.679688 C 16.59375 5.664062 16.527344 5.652344 16.460938 5.644531 L 16.429688 5.839844 " fill-opacity="1" fill-rule="nonzero"/></g><g clip-path="url(#cac3d08844)"><path fill="#7d3ef0" d="M 16.847656 23.105469 L 16.890625 23.296875 C 16.957031 23.285156 17.019531 23.269531 17.085938 23.253906 L 17.039062 23.0625 C 16.976562 23.078125 16.914062 23.089844 16.847656 23.105469 " fill-opacity="1" fill-rule="nonzero"/></g><g clip-path="url(#fe73d3b0a0)"><path fill="#7d3ef0" d="M 16.269531 23.207031 L 16.300781 23.402344 C 16.363281 23.394531 16.429688 23.382812 16.496094 23.375 L 16.464844 23.179688 C 16.398438 23.1875 16.335938 23.199219 16.269531 23.207031 " fill-opacity="1" fill-rule="nonzero"/></g><g clip-path="url(#7409b4ffda)"><path fill="#7d3ef0" d="M 15.6875 23.273438 L 15.703125 23.46875 C 15.769531 23.464844 15.835938 23.460938 15.902344 23.453125 L 15.882812 23.257812 C 15.816406 23.261719 15.753906 23.269531 15.6875 23.273438 " fill-opacity="1" fill-rule="nonzero"/></g><g clip-path="url(#4a31e225a7)"><path fill="#7d3ef0" d="M 6.628906 17.222656 L 6.441406 17.285156 C 6.464844 17.347656 6.484375 17.410156 6.507812 17.472656 L 6.691406 17.410156 C 6.671875 17.347656 6.652344 17.285156 6.628906 17.222656 " fill-opacity="1" fill-rule="nonzero"/></g><g clip-path="url(#6eabb336f8)"><path fill="#7d3ef0" d="M 6.832031 17.777344 L 6.648438 17.847656 C 6.671875 17.910156 6.695312 17.972656 6.722656 18.035156 L 6.90625 17.957031 C 6.878906 17.894531 6.855469 17.835938 6.832031 17.777344 " fill-opacity="1" fill-rule="nonzero"/></g><g clip-path="url(#33e7e4d28f)"><path fill="#7d3ef0" d="M 6.96875 10.914062 L 6.789062 10.835938 C 6.761719 10.894531 6.738281 10.957031 6.710938 11.019531 L 6.890625 11.09375 C 6.917969 11.035156 6.945312 10.976562 6.96875 10.914062 " fill-opacity="1" fill-rule="nonzero"/></g><g clip-path="url(#6e19933fea)"><path fill="#7d3ef0" d="M 6.214844 14.917969 L 6.015625 14.929688 C 6.019531 14.996094 6.023438 15.0625 6.027344 15.128906 L 6.222656 15.113281 C 6.21875 15.050781 6.214844 14.984375 6.214844 14.917969 " fill-opacity="1" fill-rule="nonzero"/></g><g clip-path="url(#1f99a827e3)"><path fill="#7d3ef0" d="M 6.238281 13.746094 L 6.039062 13.730469 C 6.035156 13.796875 6.03125 13.863281 6.023438 13.929688 L 6.222656 13.941406 C 6.226562 13.875 6.230469 13.8125 6.238281 13.746094 " fill-opacity="1" fill-rule="nonzero"/></g><g clip-path="url(#1f2c6ef2e1)"><path fill="#7d3ef0" d="M 6.75 11.460938 L 6.5625 11.390625 C 6.539062 11.453125 6.515625 11.515625 6.496094 11.582031 L 6.683594 11.644531 C 6.703125 11.582031 6.726562 11.519531 6.75 11.460938 " fill-opacity="1" fill-rule="nonzero"/></g><g clip-path="url(#13feb9938b)"><path fill="#7d3ef0" d="M 6.308594 13.164062 L 6.113281 13.132812 C 6.101562 13.199219 6.09375 13.265625 6.082031 13.332031 L 6.28125 13.355469 C 6.289062 13.292969 6.296875 13.226562 6.308594 13.164062 " fill-opacity="1" fill-rule="nonzero"/></g><path fill="#7d3ef0" d="M 21.085938 8.175781 C 21.132812 8.222656 21.179688 8.265625 21.226562 8.3125 L 21.367188 8.171875 C 21.320312 8.125 21.273438 8.078125 21.222656 8.03125 L 21.085938 8.175781 " fill-opacity="1" fill-rule="nonzero"/><path fill="#7d3ef0" d="M 9.046875 21.25 C 9.09375 21.292969 9.144531 21.335938 9.195312 21.378906 L 9.324219 21.226562 C 9.273438 21.1875 9.226562 21.144531 9.175781 21.101562 L 9.046875 21.25 " fill-opacity="1" fill-rule="nonzero"/><g clip-path="url(#65ffe7b034)"><path fill="#7d3ef0" d="M 6.5625 12.015625 L 6.375 11.960938 C 6.355469 12.023438 6.335938 12.089844 6.320312 12.152344 L 6.507812 12.207031 C 6.527344 12.144531 6.542969 12.082031 6.5625 12.015625 " fill-opacity="1" fill-rule="nonzero"/></g><path fill="#7d3ef0" d="M 8.734375 8.0625 L 8.871094 8.203125 C 8.917969 8.160156 8.964844 8.113281 9.011719 8.070312 L 8.878906 7.925781 C 8.828125 7.96875 8.78125 8.015625 8.734375 8.0625 " fill-opacity="1" fill-rule="nonzero"/><path fill="#7d3ef0" d="M 19.703125 7.085938 C 19.757812 7.121094 19.8125 7.160156 19.867188 7.195312 L 19.976562 7.03125 C 19.921875 6.992188 19.867188 6.957031 19.808594 6.921875 L 19.703125 7.085938 " fill-opacity="1" fill-rule="nonzero"/><path fill="#7d3ef0" d="M 7.851562 9.390625 L 7.691406 9.273438 C 7.652344 9.328125 7.613281 9.382812 7.574219 9.4375 L 7.738281 9.550781 C 7.773438 9.496094 7.8125 9.441406 7.851562 9.390625 " fill-opacity="1" fill-rule="nonzero"/><path fill="#7d3ef0" d="M 7.523438 9.878906 L 7.355469 9.773438 C 7.320312 9.828125 7.285156 9.886719 7.25 9.945312 L 7.421875 10.042969 C 7.453125 9.988281 7.488281 9.933594 7.523438 9.878906 " fill-opacity="1" fill-rule="nonzero"/><path fill="#7d3ef0" d="M 7.476562 19.441406 C 7.515625 19.496094 7.550781 19.550781 7.589844 19.605469 L 7.75 19.492188 C 7.714844 19.441406 7.679688 19.386719 7.644531 19.332031 L 7.476562 19.441406 " fill-opacity="1" fill-rule="nonzero"/><g clip-path="url(#afd7a61d93)"><path fill="#7d3ef0" d="M 7.230469 10.386719 L 7.054688 10.292969 C 7.023438 10.351562 6.992188 10.414062 6.964844 10.472656 L 7.140625 10.5625 C 7.167969 10.503906 7.199219 10.445312 7.230469 10.386719 " fill-opacity="1" fill-rule="nonzero"/></g><path fill="#7d3ef0" d="M 11.191406 6.367188 L 11.273438 6.546875 C 11.332031 6.519531 11.390625 6.492188 11.453125 6.464844 L 11.371094 6.285156 C 11.308594 6.3125 11.25 6.339844 11.191406 6.367188 " fill-opacity="1" fill-rule="nonzero"/><path fill="#7d3ef0" d="M 10.140625 6.945312 L 10.25 7.109375 C 10.304688 7.074219 10.359375 7.042969 10.414062 7.007812 L 10.308594 6.839844 C 10.253906 6.875 10.199219 6.910156 10.140625 6.945312 " fill-opacity="1" fill-rule="nonzero"/><g clip-path="url(#eb2a4fae13)"><path fill="#7d3ef0" d="M 12.148438 23.039062 C 12.214844 23.058594 12.277344 23.082031 12.339844 23.101562 L 12.398438 22.910156 C 12.335938 22.890625 12.273438 22.871094 12.210938 22.851562 L 12.148438 23.039062 " fill-opacity="1" fill-rule="nonzero"/></g><path fill="#7d3ef0" d="M 9.648438 7.285156 L 9.765625 7.445312 C 9.816406 7.40625 9.871094 7.367188 9.921875 7.328125 L 9.808594 7.167969 C 9.753906 7.207031 9.703125 7.246094 9.648438 7.285156 " fill-opacity="1" fill-rule="nonzero"/><path fill="#7d3ef0" d="M 8.199219 20.394531 C 8.246094 20.445312 8.289062 20.496094 8.332031 20.546875 L 8.480469 20.414062 C 8.4375 20.363281 8.394531 20.316406 8.351562 20.265625 L 8.199219 20.394531 " fill-opacity="1" fill-rule="nonzero"/><g clip-path="url(#5e2dd68833)"><path fill="#7d3ef0" d="M 6.46875 16.660156 L 6.277344 16.707031 C 6.292969 16.773438 6.308594 16.835938 6.328125 16.902344 L 6.519531 16.847656 C 6.5 16.785156 6.484375 16.722656 6.46875 16.660156 " fill-opacity="1" fill-rule="nonzero"/></g><path fill="#7d3ef0" d="M 8.207031 8.921875 L 8.054688 8.796875 C 8.011719 8.847656 7.972656 8.902344 7.929688 8.953125 L 8.085938 9.074219 C 8.125 9.023438 8.167969 8.972656 8.207031 8.921875 " fill-opacity="1" fill-rule="nonzero"/><g clip-path="url(#87d5f0a929)"><path fill="#7d3ef0" d="M 12.886719 5.773438 L 12.933594 5.964844 C 12.996094 5.949219 13.058594 5.933594 13.121094 5.921875 L 13.082031 5.726562 C 13.015625 5.742188 12.949219 5.757812 12.886719 5.773438 " fill-opacity="1" fill-rule="nonzero"/></g><g clip-path="url(#e8f39072c3)"><path fill="#7d3ef0" d="M 6.34375 16.085938 L 6.152344 16.121094 C 6.164062 16.1875 6.175781 16.25 6.1875 16.316406 L 6.382812 16.277344 C 6.367188 16.214844 6.355469 16.148438 6.34375 16.085938 " fill-opacity="1" fill-rule="nonzero"/></g><path fill="#7d3ef0" d="M 21.773438 8.613281 C 21.730469 8.5625 21.6875 8.511719 21.640625 8.464844 L 21.496094 8.597656 C 21.539062 8.644531 21.582031 8.691406 21.625 8.742188 L 21.773438 8.613281 " fill-opacity="1" fill-rule="nonzero"/><g clip-path="url(#f2b38424ac)"><path fill="#7d3ef0" d="M 6.414062 12.585938 L 6.222656 12.542969 C 6.207031 12.609375 6.195312 12.671875 6.179688 12.738281 L 6.375 12.777344 C 6.386719 12.714844 6.402344 12.648438 6.414062 12.585938 " fill-opacity="1" fill-rule="nonzero"/></g><path fill="#7d3ef0" d="M 18.519531 22.5625 L 18.601562 22.746094 C 18.660156 22.71875 18.722656 22.691406 18.78125 22.664062 L 18.699219 22.484375 C 18.640625 22.511719 18.582031 22.539062 18.519531 22.5625 " fill-opacity="1" fill-rule="nonzero"/><g clip-path="url(#13a091424f)"><path fill="#7d3ef0" d="M 6.257812 15.503906 L 6.0625 15.527344 C 6.070312 15.59375 6.078125 15.660156 6.089844 15.726562 L 6.285156 15.699219 C 6.273438 15.632812 6.265625 15.570312 6.257812 15.503906 " fill-opacity="1" fill-rule="nonzero"/></g><path fill="#7d3ef0" d="M 20.648438 7.78125 C 20.699219 7.824219 20.75 7.867188 20.800781 7.910156 L 20.929688 7.761719 C 20.878906 7.71875 20.828125 7.675781 20.777344 7.632812 L 20.648438 7.78125 " fill-opacity="1" fill-rule="nonzero"/><path fill="#7d3ef0" d="M 18.671875 6.523438 C 18.730469 6.550781 18.789062 6.582031 18.847656 6.609375 L 18.933594 6.429688 C 18.875 6.402344 18.816406 6.375 18.753906 6.34375 L 18.671875 6.523438 " fill-opacity="1" fill-rule="nonzero"/><path fill="#7d3ef0" d="M 20.519531 21.347656 L 20.640625 21.5 C 20.695312 21.460938 20.746094 21.417969 20.796875 21.375 L 20.667969 21.222656 C 20.617188 21.265625 20.570312 21.308594 20.519531 21.347656 " fill-opacity="1" fill-rule="nonzero"/><path fill="#7d3ef0" d="M 23.234375 17.578125 L 23.417969 17.648438 C 23.441406 17.585938 23.464844 17.523438 23.488281 17.457031 L 23.300781 17.394531 C 23.277344 17.453125 23.257812 17.515625 23.234375 17.578125 " fill-opacity="1" fill-rule="nonzero"/><path fill="#7d3ef0" d="M 23.417969 17.019531 L 23.609375 17.078125 C 23.628906 17.011719 23.648438 16.949219 23.664062 16.882812 L 23.472656 16.832031 C 23.457031 16.894531 23.4375 16.957031 23.417969 17.019531 " fill-opacity="1" fill-rule="nonzero"/><path fill="#7d3ef0" d="M 22.457031 19.160156 L 22.621094 19.261719 C 22.660156 19.207031 22.691406 19.148438 22.726562 19.09375 L 22.558594 18.992188 C 22.523438 19.046875 22.492188 19.101562 22.457031 19.160156 " fill-opacity="1" fill-rule="nonzero"/><path fill="#7d3ef0" d="M 23.570312 16.453125 L 23.761719 16.496094 C 23.777344 16.429688 23.789062 16.367188 23.804688 16.300781 L 23.609375 16.261719 C 23.597656 16.324219 23.582031 16.390625 23.570312 16.453125 " fill-opacity="1" fill-rule="nonzero"/><path fill="#7d3ef0" d="M 23.152344 11.230469 L 23.335938 11.15625 C 23.308594 11.09375 23.285156 11.035156 23.257812 10.972656 L 23.074219 11.050781 C 23.101562 11.109375 23.125 11.171875 23.152344 11.230469 " fill-opacity="1" fill-rule="nonzero"/><path fill="#7d3ef0" d="M 23.09375 10.609375 C 23.0625 10.550781 23.035156 10.488281 23.003906 10.429688 L 22.828125 10.519531 C 22.855469 10.578125 22.886719 10.636719 22.914062 10.695312 L 23.09375 10.609375 " fill-opacity="1" fill-rule="nonzero"/><path fill="#7d3ef0" d="M 23.351562 11.78125 L 23.539062 11.71875 C 23.519531 11.65625 23.496094 11.59375 23.476562 11.53125 L 23.289062 11.597656 C 23.3125 11.65625 23.332031 11.71875 23.351562 11.78125 " fill-opacity="1" fill-rule="nonzero"/><path fill="#7d3ef0" d="M 23.011719 18.121094 L 23.191406 18.203125 C 23.21875 18.140625 23.246094 18.082031 23.269531 18.019531 L 23.089844 17.941406 C 23.0625 18.003906 23.035156 18.0625 23.011719 18.121094 " fill-opacity="1" fill-rule="nonzero"/><path fill="#7d3ef0" d="M 22.8125 10.078125 C 22.78125 10.019531 22.746094 9.960938 22.714844 9.90625 L 22.542969 10.007812 C 22.578125 10.0625 22.609375 10.121094 22.640625 10.175781 L 22.8125 10.078125 " fill-opacity="1" fill-rule="nonzero"/><path fill="#7d3ef0" d="M 22.5 9.566406 C 22.464844 9.511719 22.425781 9.457031 22.390625 9.402344 L 22.226562 9.515625 C 22.261719 9.566406 22.300781 9.621094 22.335938 9.675781 L 22.5 9.566406 " fill-opacity="1" fill-rule="nonzero"/><path fill="#7d3ef0" d="M 22.128906 19.648438 L 22.289062 19.761719 C 22.328125 19.707031 22.367188 19.652344 22.402344 19.597656 L 22.242188 19.484375 C 22.203125 19.539062 22.167969 19.59375 22.128906 19.648438 " fill-opacity="1" fill-rule="nonzero"/><path fill="#7d3ef0" d="M 22.152344 9.078125 C 22.113281 9.023438 22.074219 8.972656 22.03125 8.921875 L 21.875 9.042969 C 21.917969 9.09375 21.957031 9.144531 21.996094 9.199219 L 22.152344 9.078125 " fill-opacity="1" fill-rule="nonzero"/><g clip-path="url(#8ee9c2c991)"><g clip-path="url(#6165b8383c)"><path fill="url(#1698390e82)" d="M 6.703125 6.21875 L 6.703125 22.8125 L 23.296875 22.8125 L 23.296875 6.21875 Z M 6.703125 6.21875 " fill-rule="nonzero"/></g></g><g clip-path="url(#507820a9d8)"><path fill="#ffffff" d="M 11.519531 15.625 C 11.582031 15.6875 11.585938 15.789062 11.523438 15.851562 L 11.378906 16.007812 C 11.347656 16.042969 11.304688 16.058594 11.261719 16.058594 C 11.222656 16.058594 11.183594 16.042969 11.152344 16.015625 C 11.085938 15.953125 11.082031 15.851562 11.144531 15.785156 L 11.289062 15.632812 C 11.351562 15.566406 11.453125 15.5625 11.519531 15.625 Z M 10.808594 16.675781 C 10.726562 16.640625 10.691406 16.546875 10.726562 16.464844 L 10.800781 16.292969 C 10.835938 16.210938 10.933594 16.175781 11.015625 16.210938 C 11.097656 16.246094 11.132812 16.339844 11.097656 16.421875 L 11.023438 16.59375 C 10.996094 16.65625 10.9375 16.691406 10.875 16.691406 C 10.851562 16.691406 10.832031 16.6875 10.808594 16.675781 Z M 10.769531 17.367188 C 10.679688 17.367188 10.605469 17.292969 10.605469 17.203125 L 10.605469 17.023438 C 10.605469 16.9375 10.679688 16.863281 10.769531 16.863281 C 10.859375 16.863281 10.929688 16.9375 10.929688 17.023438 L 10.929688 17.203125 C 10.929688 17.292969 10.859375 17.367188 10.769531 17.367188 Z M 11.015625 18.019531 C 10.992188 18.027344 10.972656 18.03125 10.949219 18.03125 C 10.886719 18.03125 10.828125 17.996094 10.800781 17.933594 L 10.726562 17.761719 C 10.691406 17.683594 10.726562 17.585938 10.808594 17.550781 C 10.890625 17.515625 10.988281 17.550781 11.023438 17.632812 L 11.097656 17.804688 C 11.132812 17.886719 11.097656 17.984375 11.015625 18.019531 Z M 11.523438 18.375 C 11.585938 18.441406 11.582031 18.542969 11.519531 18.605469 C 11.488281 18.632812 11.445312 18.648438 11.40625 18.648438 C 11.363281 18.648438 11.320312 18.632812 11.289062 18.597656 L 11.144531 18.445312 C 11.082031 18.378906 11.085938 18.277344 11.152344 18.214844 C 11.214844 18.15625 11.320312 18.15625 11.378906 18.222656 Z M 12.246094 19.09375 C 12.214844 19.144531 12.164062 19.171875 12.109375 19.171875 C 12.082031 19.171875 12.050781 19.164062 12.023438 19.148438 L 11.820312 19.019531 C 11.742188 18.976562 11.71875 18.875 11.765625 18.800781 C 11.8125 18.722656 11.914062 18.699219 11.988281 18.746094 L 12.195312 18.871094 C 12.269531 18.917969 12.292969 19.015625 12.246094 19.09375 Z M 13.160156 19.457031 C 13.136719 19.523438 13.074219 19.5625 13.007812 19.5625 C 12.992188 19.5625 12.972656 19.5625 12.953125 19.554688 L 12.703125 19.464844 C 12.617188 19.433594 12.574219 19.34375 12.605469 19.257812 C 12.632812 19.175781 12.726562 19.132812 12.808594 19.160156 L 13.0625 19.25 C 13.144531 19.28125 13.191406 19.371094 13.160156 19.457031 Z M 14.203125 19.664062 C 14.1875 19.746094 14.121094 19.800781 14.042969 19.800781 C 14.035156 19.800781 14.023438 19.800781 14.015625 19.800781 L 13.734375 19.753906 C 13.648438 19.738281 13.585938 19.65625 13.601562 19.566406 C 13.617188 19.480469 13.699219 19.421875 13.789062 19.433594 L 14.070312 19.480469 C 14.15625 19.496094 14.214844 19.578125 14.203125 19.664062 Z M 15.304688 19.699219 C 15.304688 19.789062 15.234375 19.863281 15.144531 19.867188 C 15.09375 19.867188 15.046875 19.867188 14.996094 19.867188 C 14.945312 19.867188 14.898438 19.867188 14.847656 19.867188 C 14.757812 19.863281 14.6875 19.789062 14.6875 19.699219 C 14.691406 19.613281 14.765625 19.542969 14.855469 19.542969 C 14.949219 19.546875 15.042969 19.546875 15.136719 19.542969 C 15.226562 19.542969 15.300781 19.613281 15.304688 19.699219 Z M 16.390625 19.566406 C 16.40625 19.65625 16.34375 19.738281 16.257812 19.753906 L 15.976562 19.800781 C 15.96875 19.800781 15.957031 19.800781 15.949219 19.800781 C 15.871094 19.800781 15.804688 19.746094 15.789062 19.664062 C 15.777344 19.578125 15.835938 19.496094 15.921875 19.480469 L 16.203125 19.433594 C 16.292969 19.421875 16.375 19.480469 16.390625 19.566406 Z M 17.386719 19.257812 C 17.417969 19.34375 17.375 19.433594 17.289062 19.464844 L 17.039062 19.554688 C 17.019531 19.5625 17 19.5625 16.984375 19.5625 C 16.917969 19.5625 16.855469 19.523438 16.832031 19.457031 C 16.800781 19.371094 16.847656 19.28125 16.929688 19.25 L 17.183594 19.160156 C 17.265625 19.132812 17.359375 19.175781 17.386719 19.257812 Z M 18.226562 18.800781 C 18.273438 18.875 18.25 18.976562 18.171875 19.019531 L 17.96875 19.148438 C 17.941406 19.164062 17.910156 19.171875 17.882812 19.171875 C 17.828125 19.171875 17.777344 19.144531 17.746094 19.09375 C 17.699219 19.015625 17.722656 18.917969 17.796875 18.871094 L 18.003906 18.746094 C 18.078125 18.699219 18.179688 18.722656 18.226562 18.800781 Z M 18.839844 18.214844 C 18.90625 18.277344 18.910156 18.378906 18.847656 18.445312 L 18.703125 18.597656 C 18.671875 18.632812 18.628906 18.648438 18.585938 18.648438 C 18.542969 18.648438 18.503906 18.632812 18.472656 18.605469 C 18.410156 18.542969 18.40625 18.441406 18.46875 18.375 L 18.613281 18.222656 C 18.671875 18.15625 18.777344 18.15625 18.839844 18.214844 Z M 19.265625 17.761719 L 19.191406 17.933594 C 19.164062 17.996094 19.105469 18.03125 19.042969 18.03125 C 19.019531 18.03125 19 18.027344 18.976562 18.019531 C 18.894531 17.984375 18.859375 17.886719 18.894531 17.804688 L 18.96875 17.632812 C 19.003906 17.550781 19.101562 17.515625 19.183594 17.550781 C 19.261719 17.585938 19.300781 17.683594 19.265625 17.761719 Z M 19.386719 17.023438 L 19.386719 17.203125 C 19.386719 17.292969 19.3125 17.367188 19.222656 17.367188 C 19.132812 17.367188 19.0625 17.292969 19.0625 17.203125 L 19.0625 17.023438 C 19.0625 16.9375 19.132812 16.863281 19.222656 16.863281 C 19.3125 16.863281 19.386719 16.9375 19.386719 17.023438 Z M 18.894531 16.421875 C 18.859375 16.339844 18.894531 16.246094 18.976562 16.210938 C 19.058594 16.175781 19.152344 16.210938 19.191406 16.292969 L 19.265625 16.464844 C 19.300781 16.546875 19.261719 16.640625 19.183594 16.675781 C 19.160156 16.6875 19.140625 16.691406 19.117188 16.691406 C 19.054688 16.691406 18.996094 16.65625 18.96875 16.59375 Z M 18.847656 15.785156 C 18.910156 15.851562 18.90625 15.953125 18.839844 16.015625 C 18.808594 16.042969 18.769531 16.058594 18.730469 16.058594 C 18.6875 16.058594 18.644531 16.042969 18.613281 16.007812 L 18.46875 15.851562 C 18.40625 15.789062 18.410156 15.6875 18.472656 15.625 C 18.539062 15.5625 18.640625 15.566406 18.703125 15.632812 Z M 19.207031 12.570312 C 19.230469 12.527344 19.21875 12.476562 19.179688 12.449219 L 19.160156 12.4375 C 19.121094 12.410156 19.066406 12.421875 19.035156 12.460938 C 18.835938 12.75 18.613281 13.027344 18.375 13.285156 C 18.136719 13.539062 17.855469 13.84375 17.480469 13.992188 C 17.40625 14.03125 17.324219 14.058594 17.238281 14.066406 C 17.210938 14.074219 17.1875 14.078125 17.160156 14.078125 C 17.082031 14.089844 17.003906 14.097656 16.933594 14.097656 C 16.492188 14.097656 16.277344 13.878906 15.996094 13.597656 L 15.324219 12.925781 C 15.308594 12.910156 15.285156 12.898438 15.261719 12.898438 C 15.238281 12.898438 15.214844 12.910156 15.195312 12.925781 L 15.183594 12.941406 C 15.152344 12.96875 15.148438 13.015625 15.171875 13.050781 C 15.230469 13.144531 15.285156 13.230469 15.339844 13.316406 C 15.707031 13.890625 16 14.34375 15.996094 15.171875 C 15.992188 15.816406 15.78125 16.691406 15.59375 17.464844 C 15.554688 17.636719 15.511719 17.804688 15.476562 17.960938 C 15.472656 17.984375 15.488281 18.007812 15.511719 18.011719 L 15.542969 18.023438 C 15.566406 18.027344 15.585938 18.019531 15.59375 18 L 16.539062 16.308594 C 16.570312 16.257812 16.625 16.226562 16.679688 16.226562 C 16.699219 16.226562 16.714844 16.230469 16.734375 16.234375 C 16.804688 16.261719 16.851562 16.335938 16.839844 16.414062 L 16.589844 18.054688 C 16.585938 18.082031 16.597656 18.101562 16.605469 18.109375 C 16.613281 18.117188 16.625 18.132812 16.652344 18.132812 L 16.691406 18.136719 C 16.722656 18.136719 16.746094 18.125 16.757812 18.09375 C 17.164062 17.097656 17.511719 16.0625 17.816406 14.921875 C 17.863281 14.757812 17.925781 14.625 18.019531 14.484375 C 18.4375 13.878906 18.835938 13.234375 19.207031 12.570312 Z M 14.820312 13.050781 C 14.84375 13.015625 14.839844 12.96875 14.808594 12.941406 L 14.796875 12.925781 C 14.777344 12.910156 14.753906 12.898438 14.730469 12.898438 C 14.707031 12.898438 14.683594 12.910156 14.667969 12.925781 L 13.996094 13.597656 C 13.671875 13.925781 13.433594 14.164062 12.828125 14.078125 C 12.804688 14.078125 12.78125 14.074219 12.753906 14.066406 C 12.667969 14.058594 12.585938 14.03125 12.511719 13.992188 C 12.136719 13.84375 11.855469 13.539062 11.617188 13.285156 C 11.378906 13.027344 11.15625 12.75 10.957031 12.460938 C 10.9375 12.4375 10.910156 12.421875 10.878906 12.421875 C 10.863281 12.421875 10.847656 12.425781 10.832031 12.4375 L 10.8125 12.449219 C 10.773438 12.476562 10.761719 12.527344 10.78125 12.570312 C 11.152344 13.234375 11.554688 13.878906 11.972656 14.484375 C 12.066406 14.625 12.128906 14.757812 12.175781 14.921875 C 12.480469 16.0625 12.828125 17.097656 13.234375 18.09375 C 13.246094 18.125 13.269531 18.136719 13.300781 18.136719 L 13.339844 18.132812 C 13.367188 18.132812 13.382812 18.117188 13.386719 18.109375 C 13.394531 18.101562 13.40625 18.082031 13.402344 18.054688 L 13.152344 16.414062 C 13.140625 16.335938 13.1875 16.261719 13.257812 16.234375 C 13.332031 16.210938 13.414062 16.242188 13.453125 16.308594 L 14.398438 18 C 14.40625 18.019531 14.425781 18.027344 14.449219 18.023438 L 14.480469 18.011719 C 14.503906 18.007812 14.519531 17.984375 14.515625 17.960938 C 14.480469 17.804688 14.4375 17.636719 14.398438 17.464844 C 14.210938 16.691406 14 15.816406 13.996094 15.171875 C 13.992188 14.34375 14.285156 13.890625 14.652344 13.316406 C 14.707031 13.230469 14.761719 13.144531 14.820312 13.050781 Z M 11.082031 12.097656 C 11.375 12.125 11.621094 12.113281 11.839844 12.0625 C 12.457031 11.921875 12.605469 11.585938 12.789062 11.15625 C 12.820312 11.089844 12.847656 11.023438 12.882812 10.953125 L 13.273438 10.105469 C 13.3125 10.183594 13.355469 10.265625 13.394531 10.351562 C 13.171875 11.199219 13.019531 11.898438 12.960938 12.632812 C 12.921875 12.625 12.878906 12.621094 12.839844 12.621094 C 12.441406 12.621094 12.121094 12.9375 12.113281 13.332031 C 12.023438 13.246094 11.9375 13.15625 11.855469 13.066406 C 11.625 12.820312 11.410156 12.554688 11.222656 12.277344 C 11.171875 12.203125 11.101562 12.152344 11.019531 12.125 C 11.023438 12.121094 11.027344 12.117188 11.027344 12.117188 C 11.035156 12.109375 11.054688 12.097656 11.082031 12.097656 Z M 11.902344 10.863281 C 11.679688 10.863281 11.5 11.042969 11.5 11.265625 C 11.5 11.488281 11.679688 11.667969 11.902344 11.667969 C 11.988281 11.667969 12.0625 11.640625 12.128906 11.601562 C 12.128906 11.597656 12.128906 11.597656 12.128906 11.597656 C 12.128906 11.597656 12.132812 11.59375 12.136719 11.59375 C 12.148438 11.585938 12.160156 11.574219 12.171875 11.566406 C 12.253906 11.492188 12.304688 11.382812 12.304688 11.265625 C 12.304688 11.042969 12.125 10.863281 11.902344 10.863281 Z M 13.273438 12.765625 C 13.316406 12.121094 13.4375 11.511719 13.613281 10.800781 C 13.824219 11.25 14.007812 11.699219 14.082031 12.085938 C 14.132812 12.339844 14.164062 12.625 14.183594 12.953125 L 13.769531 13.371094 C 13.671875 13.464844 13.59375 13.546875 13.515625 13.609375 C 13.546875 13.527344 13.5625 13.4375 13.5625 13.347656 C 13.5625 13.109375 13.449219 12.898438 13.273438 12.765625 Z M 12.644531 13.699219 C 12.519531 13.632812 12.433594 13.5 12.433594 13.347656 C 12.433594 13.125 12.617188 12.945312 12.839844 12.945312 C 13.058594 12.945312 13.242188 13.125 13.242188 13.347656 C 13.242188 13.570312 13.058594 13.75 12.839844 13.75 C 12.824219 13.75 12.8125 13.75 12.800781 13.746094 C 12.75 13.734375 12.695312 13.71875 12.644531 13.699219 Z M 13.394531 9.570312 C 13.398438 9.558594 13.410156 9.542969 13.4375 9.53125 L 13.449219 9.527344 C 13.484375 9.519531 13.515625 9.53125 13.53125 9.558594 C 13.777344 10 14.0625 10.355469 14.378906 10.613281 C 14.742188 10.910156 15.25 10.910156 15.613281 10.613281 C 15.929688 10.355469 16.214844 10 16.460938 9.558594 C 16.472656 9.535156 16.496094 9.523438 16.527344 9.527344 C 16.550781 9.527344 16.582031 9.539062 16.597656 9.570312 C 16.605469 9.589844 16.605469 9.609375 16.59375 9.625 C 16.542969 9.734375 16.488281 9.84375 16.429688 9.957031 C 16.097656 10.628906 15.71875 11.386719 15.59375 12.023438 C 15.554688 12.21875 15.527344 12.425781 15.503906 12.660156 C 15.433594 12.605469 15.351562 12.578125 15.261719 12.578125 C 15.261719 12.578125 15.261719 12.578125 15.257812 12.578125 C 15.164062 12.578125 15.070312 12.613281 14.996094 12.671875 C 14.921875 12.613281 14.828125 12.578125 14.734375 12.578125 C 14.640625 12.578125 14.558594 12.605469 14.488281 12.660156 C 14.464844 12.425781 14.4375 12.21875 14.398438 12.023438 C 14.273438 11.386719 13.894531 10.628906 13.5625 9.957031 C 13.503906 9.84375 13.449219 9.734375 13.398438 9.625 C 13.386719 9.601562 13.390625 9.582031 13.394531 9.570312 Z M 14.996094 9.707031 C 14.773438 9.707031 14.59375 9.886719 14.59375 10.109375 C 14.59375 10.320312 14.753906 10.492188 14.953125 10.511719 C 14.980469 10.511719 15.011719 10.511719 15.039062 10.511719 C 15.238281 10.492188 15.398438 10.320312 15.398438 10.109375 C 15.398438 9.886719 15.21875 9.707031 14.996094 9.707031 Z M 16.378906 10.800781 C 16.554688 11.511719 16.675781 12.121094 16.71875 12.765625 C 16.542969 12.898438 16.429688 13.109375 16.429688 13.347656 C 16.429688 13.4375 16.445312 13.527344 16.476562 13.609375 C 16.398438 13.546875 16.320312 13.464844 16.222656 13.371094 L 15.808594 12.953125 C 15.828125 12.625 15.859375 12.339844 15.910156 12.085938 C 15.984375 11.699219 16.167969 11.25 16.378906 10.800781 Z M 17.191406 13.746094 C 17.179688 13.75 17.167969 13.75 17.152344 13.75 C 16.933594 13.75 16.75 13.570312 16.75 13.347656 C 16.75 13.125 16.933594 12.945312 17.152344 12.945312 C 17.375 12.945312 17.554688 13.125 17.554688 13.347656 C 17.554688 13.5 17.472656 13.632812 17.347656 13.699219 C 17.296875 13.71875 17.242188 13.734375 17.191406 13.746094 Z M 17.203125 11.160156 C 17.308594 11.402344 17.40625 11.625 17.597656 11.796875 C 17.625 11.824219 17.65625 11.847656 17.6875 11.867188 C 17.804688 11.953125 17.957031 12.019531 18.152344 12.0625 C 18.371094 12.113281 18.617188 12.125 18.910156 12.097656 C 18.9375 12.097656 18.957031 12.109375 18.964844 12.117188 C 18.964844 12.117188 18.96875 12.121094 18.972656 12.125 C 18.890625 12.152344 18.820312 12.203125 18.769531 12.277344 C 18.578125 12.554688 18.367188 12.820312 18.136719 13.066406 C 18.054688 13.15625 17.96875 13.246094 17.878906 13.332031 C 17.871094 12.9375 17.550781 12.621094 17.152344 12.621094 C 17.113281 12.621094 17.070312 12.625 17.03125 12.632812 C 16.972656 11.898438 16.820312 11.199219 16.597656 10.351562 C 16.636719 10.265625 16.679688 10.183594 16.71875 10.105469 L 17.109375 10.953125 C 17.144531 11.023438 17.171875 11.089844 17.203125 11.160156 Z M 18.089844 10.863281 C 17.867188 10.863281 17.6875 11.042969 17.6875 11.265625 C 17.6875 11.386719 17.742188 11.5 17.828125 11.574219 C 17.832031 11.574219 17.832031 11.578125 17.835938 11.578125 C 17.90625 11.632812 17.992188 11.667969 18.089844 11.667969 C 18.3125 11.667969 18.492188 11.488281 18.492188 11.265625 C 18.492188 11.042969 18.3125 10.863281 18.089844 10.863281 Z M 19.359375 12.179688 L 19.339844 12.167969 C 19.328125 12.160156 19.316406 12.152344 19.308594 12.148438 C 19.300781 12.050781 19.261719 11.957031 19.1875 11.886719 C 19.105469 11.804688 18.996094 11.765625 18.882812 11.777344 C 18.777344 11.785156 18.679688 11.789062 18.589844 11.789062 C 18.726562 11.65625 18.8125 11.472656 18.8125 11.265625 C 18.8125 10.867188 18.488281 10.539062 18.089844 10.539062 C 17.8125 10.539062 17.574219 10.695312 17.449219 10.921875 C 17.4375 10.886719 17.421875 10.851562 17.402344 10.816406 L 16.902344 9.730469 C 16.9375 9.636719 16.933594 9.535156 16.894531 9.445312 C 16.835938 9.308594 16.695312 9.210938 16.542969 9.203125 C 16.390625 9.195312 16.253906 9.269531 16.179688 9.402344 C 16.039062 9.65625 15.882812 9.875 15.71875 10.0625 C 15.695312 9.6875 15.378906 9.386719 14.996094 9.386719 C 14.613281 9.386719 14.296875 9.6875 14.273438 10.0625 C 14.109375 9.875 13.953125 9.65625 13.8125 9.402344 C 13.722656 9.238281 13.53125 9.164062 13.351562 9.222656 L 13.339844 9.226562 C 13.230469 9.261719 13.140625 9.339844 13.097656 9.445312 C 13.058594 9.535156 13.058594 9.636719 13.089844 9.730469 L 12.589844 10.816406 C 12.570312 10.851562 12.554688 10.886719 12.542969 10.921875 C 12.417969 10.695312 12.179688 10.539062 11.902344 10.539062 C 11.503906 10.539062 11.179688 10.867188 11.179688 11.265625 C 11.179688 11.472656 11.265625 11.65625 11.402344 11.789062 C 11.3125 11.789062 11.214844 11.785156 11.109375 11.777344 C 10.996094 11.765625 10.882812 11.804688 10.804688 11.886719 C 10.730469 11.957031 10.6875 12.050781 10.683594 12.148438 C 10.675781 12.15625 10.664062 12.160156 10.652344 12.167969 L 10.632812 12.179688 C 10.453125 12.300781 10.398438 12.539062 10.5 12.726562 C 10.878906 13.402344 11.28125 14.054688 11.707031 14.667969 C 11.78125 14.777344 11.828125 14.878906 11.863281 15.007812 C 12.171875 16.160156 12.523438 17.207031 12.933594 18.21875 C 12.996094 18.363281 13.136719 18.460938 13.296875 18.460938 C 13.304688 18.460938 13.3125 18.460938 13.324219 18.457031 L 13.363281 18.457031 C 13.46875 18.449219 13.570312 18.394531 13.640625 18.3125 C 13.707031 18.226562 13.738281 18.113281 13.71875 18.007812 L 13.605469 17.246094 L 14.113281 18.15625 C 14.199219 18.304688 14.363281 18.378906 14.527344 18.335938 L 14.5625 18.328125 C 14.757812 18.277344 14.875 18.082031 14.828125 17.886719 C 14.792969 17.730469 14.753906 17.5625 14.710938 17.386719 C 14.527344 16.632812 14.324219 15.777344 14.320312 15.171875 C 14.316406 14.4375 14.570312 14.039062 14.925781 13.488281 C 14.949219 13.453125 14.972656 13.414062 14.996094 13.378906 C 15.019531 13.414062 15.042969 13.453125 15.066406 13.488281 C 15.421875 14.039062 15.675781 14.4375 15.671875 15.171875 C 15.667969 15.777344 15.464844 16.632812 15.28125 17.386719 C 15.238281 17.5625 15.199219 17.730469 15.164062 17.886719 C 15.117188 18.082031 15.234375 18.277344 15.429688 18.328125 L 15.464844 18.335938 C 15.628906 18.378906 15.792969 18.304688 15.878906 18.15625 L 16.386719 17.246094 L 16.269531 18.007812 C 16.253906 18.113281 16.285156 18.226562 16.351562 18.3125 C 16.421875 18.394531 16.523438 18.449219 16.628906 18.457031 L 16.667969 18.457031 C 16.679688 18.460938 16.6875 18.460938 16.695312 18.460938 C 16.855469 18.460938 16.996094 18.363281 17.058594 18.21875 C 17.46875 17.207031 17.820312 16.160156 18.128906 15.007812 C 18.164062 14.878906 18.210938 14.777344 18.285156 14.667969 C 18.710938 14.054688 19.113281 13.402344 19.492188 12.726562 C 19.59375 12.539062 19.539062 12.300781 19.359375 12.179688 Z M 19.359375 12.179688 " fill-opacity="1" fill-rule="evenodd"/></g></svg>